<svg xmlns="http://www.w3.org/2000/svg" viewBox="0 0 100 125" x="0px" y="0px" width="100px" height="125px"><defs><style>.cls-1{fill:#111;}</style></defs><title>Origami icon_cicada</title><g data-name="Layer 2"><path class="cls-1" d="M51.28,52.64a.67.67,0,0,1-.28-.06h0a.74.74,0,0,1-.43-.4L33.3,32.92a.73.73,0,0,1-.16-.69L37.32,16.6a.76.76,0,0,1,.73-.56h26.4a.76.76,0,0,1,.73.56l4.18,15.63a.76.76,0,0,1-.17.69L52,52.16a.76.76,0,0,1-.43.43A.86.86,0,0,1,51.28,52.64ZM34.69,32.22,51.25,50.73,67.81,32.22,63.88,17.54H38.62Z"/><path class="cls-1" d="M51.28,59.32a.67.67,0,0,1-.28-.06h0a.8.8,0,0,1-.43-.4l-18.85-21a.77.77,0,0,1-.16-.74l1.63-4.94a.75.75,0,0,1,1.27-.27L51.25,50.73,68.08,31.92a.73.73,0,0,1,.71-.23.75.75,0,0,1,.56.5L71,37.13a.74.74,0,0,1-.15.74L52,58.84a.79.79,0,0,1-.43.43A.86.86,0,0,1,51.28,59.32ZM33.09,37.19,51.25,57.41,69.41,37.19l-1.08-3.3L51.81,52.36a.79.79,0,0,1-1.12,0L34.17,33.89Z"/><path class="cls-1" d="M43,84.67a.77.77,0,0,1-.6-.3L25.24,61.56a.76.76,0,0,1-.13-.65l6.4-23.74a.76.76,0,0,1,1.29-.3L47.66,53.42a.73.73,0,0,1,.19.6L43.71,84a.75.75,0,0,1-.56.62A.58.58,0,0,1,43,84.67ZM26.66,61,42.47,82l3.84-27.85L32.6,38.9Z"/><path class="cls-1" d="M59.53,84.67a.57.57,0,0,1-.18,0,.74.74,0,0,1-.56-.62L54.65,54a.76.76,0,0,1,.18-.6L69.7,36.87a.75.75,0,0,1,.73-.23.74.74,0,0,1,.55.53l6.4,23.74a.75.75,0,0,1-.12.65L60.13,84.37A.74.74,0,0,1,59.53,84.67ZM56.18,54.16,60,82,75.84,61l-6-22.05Z"/><path class="cls-1" d="M51.27,78.9a.74.74,0,0,1-.53-.22L44.07,72a.78.78,0,0,1-.21-.63l2.5-17.57a.74.74,0,0,1,.53-.61.73.73,0,0,1,.77.22l2.63,2.92,0,0,.86,1.07a.7.7,0,0,1,.16.44L52,78.13a.75.75,0,0,1-.45.71A.8.8,0,0,1,51.27,78.9ZM45.4,71.22l5.06,5.06-.61-18.09-.69-.86-1.54-1.72Z"/><path class="cls-1" d="M51.22,78.9a.72.72,0,0,1-.29-.06.72.72,0,0,1-.45-.71l.67-20.24a.77.77,0,0,1,.17-.44l.85-1.07,0,0,2.63-2.93a.76.76,0,0,1,1.31.39l2.5,17.57a.75.75,0,0,1-.22.63l-6.67,6.67A.71.71,0,0,1,51.22,78.9Zm1.42-20.71L52,76.28l5.06-5.06L54.88,55.61l-1.55,1.72Z"/><path class="cls-1" d="M51.27,78.9h-.06a.76.76,0,0,1-.74-.75V76.71l-.63-18.77a.76.76,0,0,1,.45-.71.75.75,0,0,1,.82.14l.14.13.14-.13a.75.75,0,0,1,1.26.57L52,78.15a.75.75,0,0,1-.74.75Z"/></g></svg>